<svg width="29" height="23" viewBox="0 0 29 23" fill="none" xmlns="http://www.w3.org/2000/svg">
<path d="M18.1094 17.7616H15.7214V9.95312C15.7214 9.81133 15.6054 9.69531 15.4636 9.69531H13.53C13.3882 9.69531 13.2722 9.81133 13.2722 9.95312V17.7616H10.8907C10.6747 17.7616 10.5555 18.0098 10.6876 18.1773L14.297 22.7438C14.3211 22.7747 14.3519 22.7996 14.3871 22.8167C14.4223 22.8339 14.4609 22.8428 14.5 22.8428C14.5392 22.8428 14.5778 22.8339 14.613 22.8167C14.6481 22.7996 14.6789 22.7747 14.7031 22.7438L18.3124 18.1773C18.4446 18.0098 18.3253 17.7616 18.1094 17.7616Z" fill="white"/>
<path d="M24.1486 6.81748C22.6727 2.92451 18.9118 0.15625 14.5064 0.15625C10.1011 0.15625 6.34023 2.92129 4.86426 6.81426C2.10244 7.53936 0.0625 10.0562 0.0625 13.0469C0.0625 16.6079 2.94678 19.4922 6.50459 19.4922H7.79688C7.93867 19.4922 8.05469 19.3762 8.05469 19.2344V17.3008C8.05469 17.159 7.93867 17.043 7.79688 17.043H6.50459C5.41855 17.043 4.39697 16.6111 3.63643 15.828C2.8791 15.0481 2.47627 13.9976 2.51172 12.9083C2.54072 12.0575 2.83076 11.2583 3.35605 10.5848C3.89424 9.89834 4.64834 9.39883 5.48623 9.17647L6.70762 8.85742L7.15557 7.67793C7.43271 6.94316 7.81943 6.25674 8.30605 5.63477C8.78646 5.0183 9.35553 4.47638 9.99473 4.02666C11.3192 3.09531 12.879 2.60225 14.5064 2.60225C16.1339 2.60225 17.6937 3.09531 19.0182 4.02666C19.6595 4.47783 20.2267 5.01924 20.7068 5.63477C21.1935 6.25674 21.5802 6.94639 21.8573 7.67793L22.302 8.8542L23.5202 9.17647C25.2669 9.64697 26.4883 11.2357 26.4883 13.0469C26.4883 14.1136 26.0726 15.119 25.3185 15.8731C24.9486 16.2451 24.5087 16.5401 24.0241 16.7409C23.5395 16.9417 23.0199 17.0443 22.4954 17.043H21.2031C21.0613 17.043 20.9453 17.159 20.9453 17.3008V19.2344C20.9453 19.3762 21.0613 19.4922 21.2031 19.4922H22.4954C26.0532 19.4922 28.9375 16.6079 28.9375 13.0469C28.9375 10.0595 26.904 7.5458 24.1486 6.81748Z" fill="white"/>
</svg>
