<svg width="29" height="30" viewBox="0 0 29 30" fill="none" xmlns="http://www.w3.org/2000/svg">
<path d="M14.5001 6.5C13.066 6.50187 11.6912 7.08965 10.6772 8.13441C9.66313 9.17918 9.09264 10.5956 9.09082 12.0732H11.8408C11.8408 10.5616 13.0343 9.33333 14.5001 9.33333C15.9658 9.33333 17.1593 10.5616 17.1593 12.0732C17.1593 12.9203 16.4979 13.5352 15.4873 14.3767C15.1572 14.6431 14.8401 14.9264 14.5372 15.2253C13.1649 16.6377 13.1251 18.1379 13.1251 18.3051V19.25H15.8751L15.8737 18.3532C15.8751 18.3306 15.9191 17.8064 16.4801 17.2298C16.6863 17.0173 16.9462 16.8048 17.2157 16.581C18.2868 15.6871 19.9079 14.337 19.9079 12.0732C19.9068 10.5957 19.3368 9.17897 18.3229 8.13409C17.309 7.0892 15.9341 6.5015 14.5001 6.5ZM13.1251 20.6667H15.8751V23.5H13.1251V20.6667Z" fill="white"/>
<path d="M14.5 0.833313C6.91825 0.833313 0.75 7.18848 0.75 15C0.75 22.8115 6.91825 29.1666 14.5 29.1666C22.0818 29.1666 28.25 22.8115 28.25 15C28.25 7.18848 22.0818 0.833313 14.5 0.833313ZM14.5 26.3333C8.43488 26.3333 3.5 21.2489 3.5 15C3.5 8.75106 8.43488 3.66665 14.5 3.66665C20.5651 3.66665 25.5 8.75106 25.5 15C25.5 21.2489 20.5651 26.3333 14.5 26.3333Z" fill="white"/>
</svg>
