<svg width="23" height="28" viewBox="0 0 23 28" fill="none" xmlns="http://www.w3.org/2000/svg">
<path d="M0.5 14C0.5 14.3536 0.644866 14.6928 0.902728 14.9428C1.16059 15.1929 1.51033 15.3334 1.875 15.3334H12.3113L9.14875 18.3867C9.01987 18.5106 8.91758 18.6581 8.84777 18.8206C8.77797 18.9831 8.74203 19.1573 8.74203 19.3334C8.74203 19.5094 8.77797 19.6836 8.84777 19.8461C8.91758 20.0086 9.01987 20.1561 9.14875 20.28C9.27657 20.405 9.42865 20.5042 9.59621 20.5719C9.76376 20.6396 9.94348 20.6744 10.125 20.6744C10.3065 20.6744 10.4862 20.6396 10.6538 20.5719C10.8213 20.5042 10.9734 20.405 11.1012 20.28L16.6012 14.9467C16.7264 14.8199 16.8246 14.6704 16.89 14.5067C17.0275 14.1821 17.0275 13.818 16.89 13.4934C16.8246 13.3297 16.7264 13.1802 16.6012 13.0534L11.1012 7.72002C10.973 7.5957 10.8208 7.49709 10.6533 7.42981C10.4858 7.36253 10.3063 7.3279 10.125 7.3279C9.94369 7.3279 9.76416 7.36253 9.59666 7.42981C9.42915 7.49709 9.27695 7.5957 9.14875 7.72002C9.02055 7.84434 8.91885 7.99192 8.84947 8.15435C8.78008 8.31678 8.74437 8.49087 8.74437 8.66669C8.74437 8.8425 8.78008 9.01659 8.84947 9.17902C8.91885 9.34145 9.02055 9.48904 9.14875 9.61335L12.3113 12.6667H1.875C1.51033 12.6667 1.16059 12.8072 0.902728 13.0572C0.644866 13.3073 0.5 13.6464 0.5 14ZM18.375 0.666687H4.625C3.53098 0.666687 2.48177 1.08811 1.70818 1.83826C0.934597 2.58841 0.5 3.60582 0.5 4.66669V8.66669C0.5 9.02031 0.644866 9.35945 0.902728 9.6095C1.16059 9.85954 1.51033 10 1.875 10C2.23967 10 2.58941 9.85954 2.84727 9.6095C3.10513 9.35945 3.25 9.02031 3.25 8.66669V4.66669C3.25 4.31306 3.39487 3.97393 3.65273 3.72388C3.91059 3.47383 4.26033 3.33335 4.625 3.33335H18.375C18.7397 3.33335 19.0894 3.47383 19.3473 3.72388C19.6051 3.97393 19.75 4.31306 19.75 4.66669V23.3334C19.75 23.687 19.6051 24.0261 19.3473 24.2762C19.0894 24.5262 18.7397 24.6667 18.375 24.6667H4.625C4.26033 24.6667 3.91059 24.5262 3.65273 24.2762C3.39487 24.0261 3.25 23.687 3.25 23.3334V19.3334C3.25 18.9797 3.10513 18.6406 2.84727 18.3905C2.58941 18.1405 2.23967 18 1.875 18C1.51033 18 1.16059 18.1405 0.902728 18.3905C0.644866 18.6406 0.5 18.9797 0.5 19.3334V23.3334C0.5 24.3942 0.934597 25.4116 1.70818 26.1618C2.48177 26.9119 3.53098 27.3334 4.625 27.3334H18.375C19.469 27.3334 20.5182 26.9119 21.2918 26.1618C22.0654 25.4116 22.5 24.3942 22.5 23.3334V4.66669C22.5 3.60582 22.0654 2.58841 21.2918 1.83826C20.5182 1.08811 19.469 0.666687 18.375 0.666687Z" fill="white"/>
</svg>
