<svg width="29" height="30" viewBox="0 0 29 30" fill="none" xmlns="http://www.w3.org/2000/svg">
<path d="M25.8438 15.1992H14.3067V3.31249C14.3067 3.16639 14.1906 3.04686 14.0488 3.04686H13.211C11.5181 3.04401 9.84139 3.38605 8.27731 4.05332C6.71323 4.72059 5.29265 5.69991 4.09728 6.93495C2.92008 8.14408 1.98209 9.57734 1.33547 11.1551C0.662595 12.7914 0.317318 14.5509 0.320332 16.3281C0.31756 18.0723 0.649546 19.7998 1.29719 21.4113C1.94483 23.0227 2.89535 24.4864 4.09406 25.718C5.27678 26.9365 6.65607 27.8961 8.19006 28.5635C9.77831 29.2567 11.4861 29.6125 13.211 29.6094C14.9038 29.6122 16.5805 29.2702 18.1446 28.6029C19.7087 27.9356 21.1293 26.9563 22.3246 25.7213C23.5073 24.5027 24.4387 23.0816 25.0864 21.5012C25.7593 19.8648 26.1046 18.1053 26.1016 16.3281V15.4648C26.1016 15.3187 25.9856 15.1992 25.8438 15.1992ZM20.7423 24.1574C19.7444 25.1775 18.5609 25.9848 17.2597 26.5329C15.9585 27.081 14.5651 27.3592 13.1594 27.3516C10.3202 27.3383 7.65187 26.1928 5.64416 24.1242C3.62355 22.0424 2.51174 19.2732 2.51174 16.3281C2.51174 13.383 3.62355 10.6139 5.64416 8.53202C7.40373 6.71913 9.66926 5.61346 12.1153 5.36112V17.457H23.8554C23.6072 19.9904 22.5244 22.3379 20.7423 24.1574ZM28.6797 13.3531L28.5959 12.4168C28.322 9.35878 27.0039 6.47342 24.8834 4.2953C22.7614 2.11318 19.9667 0.762703 16.9815 0.476939L16.0695 0.390611C15.918 0.37733 15.7891 0.496861 15.7891 0.652916V13.4062C15.7891 13.5523 15.9051 13.6719 16.0469 13.6719L28.4219 13.6387C28.5734 13.6387 28.6926 13.5058 28.6797 13.3531ZM17.974 11.4207V2.90077C20.0041 3.33854 21.8671 4.37438 23.3365 5.88241C24.8093 7.39647 25.818 9.32225 26.2369 11.3974L17.974 11.4207Z" fill="#ffffff"/>
</svg>
